<svg width="63" height="14" viewBox="0 0 63 14" fill="none" xmlns="http://www.w3.org/2000/svg">
<path d="M4.1761 13.4999C3.3361 13.4999 2.5981 13.3439 1.9621 13.0319C1.3381 12.7079 0.852102 12.2579 0.504102 11.6819C0.168102 11.0939 0.000101641 10.4039 0.000101641 9.61195V3.88795C0.000101641 3.08395 0.168102 2.39395 0.504102 1.81795C0.852102 1.24195 1.3381 0.797945 1.9621 0.485945C2.5981 0.161946 3.3361 -5.38826e-05 4.1761 -5.38826e-05C5.0281 -5.38826e-05 5.7601 0.161946 6.3721 0.485945C6.9961 0.797945 7.4821 1.24195 7.8301 1.81795C8.1781 2.39395 8.3521 3.08395 8.3521 3.88795H6.0841C6.0841 3.26395 5.9161 2.78995 5.5801 2.46595C5.2561 2.14195 4.7881 1.97995 4.1761 1.97995C3.5641 1.97995 3.0901 2.14195 2.7541 2.46595C2.4181 2.78995 2.2501 3.25795 2.2501 3.86995V9.61195C2.2501 10.2239 2.4181 10.6979 2.7541 11.0339C3.0901 11.3579 3.5641 11.5199 4.1761 11.5199C4.7881 11.5199 5.2561 11.3579 5.5801 11.0339C5.9161 10.6979 6.0841 10.2239 6.0841 9.61195H8.3521C8.3521 10.3919 8.1781 11.0759 7.8301 11.6639C7.4821 12.2519 6.9961 12.7079 6.3721 13.0319C5.7601 13.3439 5.0281 13.4999 4.1761 13.4999ZM14.8971 13.4999C14.0571 13.4999 13.3251 13.3439 12.7011 13.0319C12.0891 12.7079 11.6151 12.2579 11.2791 11.6819C10.9551 11.0939 10.7931 10.4039 10.7931 9.61195V3.88795C10.7931 3.09595 10.9551 2.41195 11.2791 1.83595C11.6151 1.24795 12.0891 0.797945 12.7011 0.485945C13.3251 0.161946 14.0571 -5.38826e-05 14.8971 -5.38826e-05C15.7491 -5.38826e-05 16.4811 0.161946 17.0931 0.485945C17.7051 0.797945 18.1731 1.24795 18.4971 1.83595C18.8331 2.41195 19.0011 3.08995 19.0011 3.86995V9.61195C19.0011 10.4039 18.8331 11.0939 18.4971 11.6819C18.1731 12.2579 17.7051 12.7079 17.0931 13.0319C16.4811 13.3439 15.7491 13.4999 14.8971 13.4999ZM14.8971 11.5199C15.5091 11.5199 15.9711 11.3579 16.2831 11.0339C16.5951 10.6979 16.7511 10.2239 16.7511 9.61195V3.88795C16.7511 3.26395 16.5951 2.78995 16.2831 2.46595C15.9711 2.14195 15.5091 1.97995 14.8971 1.97995C14.2851 1.97995 13.8231 2.14195 13.5111 2.46595C13.1991 2.78995 13.0431 3.26395 13.0431 3.88795V9.61195C13.0431 10.2239 13.1991 10.6979 13.5111 11.0339C13.8351 11.3579 14.2971 11.5199 14.8971 11.5199ZM21.676 13.3199V0.179946H26.05C26.926 0.179946 27.688 0.347946 28.336 0.683946C28.996 1.01995 29.506 1.49395 29.866 2.10595C30.226 2.70595 30.406 3.41395 30.406 4.22995C30.406 5.03395 30.22 5.74195 29.848 6.35395C29.488 6.96595 28.984 7.43995 28.336 7.77595C27.688 8.11195 26.926 8.27995 26.05 8.27995H23.926V13.3199H21.676ZM23.926 6.24595H26.05C26.674 6.24595 27.172 6.06595 27.544 5.70595C27.928 5.33395 28.12 4.84195 28.12 4.22995C28.12 3.60595 27.928 3.11395 27.544 2.75395C27.172 2.39395 26.674 2.21395 26.05 2.21395H23.926V6.24595ZM32.703 13.3199V11.3399H35.349V2.15995H32.703V0.179946H40.263V2.15995H37.617V11.3399H40.263V13.3199H32.703ZM43.46 13.3199V0.179946H51.344V2.14195H45.674V5.56195H50.714V7.50595H45.674V11.3579H51.344V13.3199H43.46ZM54.0189 13.3199V0.179946H57.9249C58.8129 0.179946 59.5809 0.347946 60.2289 0.683946C60.8889 1.01995 61.3989 1.49395 61.7589 2.10595C62.1189 2.71795 62.2989 3.44395 62.2989 4.28395V9.19795C62.2989 10.0259 62.1189 10.7519 61.7589 11.3759C61.3989 11.9879 60.8889 12.4679 60.2289 12.8159C59.5809 13.1519 58.8129 13.3199 57.9249 13.3199H54.0189ZM56.2689 11.2499H57.9249C58.5729 11.2499 59.0889 11.0699 59.4729 10.7099C59.8569 10.3379 60.0489 9.83395 60.0489 9.19795V4.28395C60.0489 3.65995 59.8569 3.16795 59.4729 2.80795C59.0889 2.43595 58.5729 2.24995 57.9249 2.24995H56.2689V11.2499Z" fill="#A4FFAF"/>
</svg>
