<svg width="476" height="72" viewBox="0 0 476 72" fill="none" xmlns="http://www.w3.org/2000/svg">
<g clip-path="url(#clip0_0_558)">
<rect width="476" height="72" fill="#18171F"/>
<g clip-path="url(#clip1_0_558)">
<path d="M285.904 46.24C284.704 46.24 283.664 46.04 282.784 45.64C281.904 45.24 281.224 44.672 280.744 43.936C280.28 43.184 280.04 42.304 280.024 41.296H283.024C283.024 42.016 283.28 42.584 283.792 43C284.32 43.4 285.032 43.6 285.928 43.6C286.792 43.6 287.464 43.4 287.944 43C288.44 42.6 288.688 42.048 288.688 41.344C288.688 40.752 288.512 40.24 288.16 39.808C287.824 39.36 287.336 39.056 286.696 38.896L284.68 38.344C283.304 37.992 282.24 37.36 281.488 36.448C280.752 35.536 280.384 34.432 280.384 33.136C280.384 32.144 280.608 31.28 281.056 30.544C281.504 29.808 282.136 29.24 282.952 28.84C283.784 28.44 284.76 28.24 285.88 28.24C287.576 28.24 288.92 28.68 289.912 29.56C290.904 30.424 291.408 31.592 291.424 33.064H288.424C288.424 32.376 288.2 31.84 287.752 31.456C287.304 31.056 286.672 30.856 285.856 30.856C285.072 30.856 284.464 31.04 284.032 31.408C283.6 31.776 283.384 32.296 283.384 32.968C283.384 33.576 283.544 34.096 283.864 34.528C284.2 34.944 284.68 35.24 285.304 35.416L287.392 35.992C288.784 36.344 289.848 36.976 290.584 37.888C291.32 38.784 291.688 39.896 291.688 41.224C291.688 42.216 291.448 43.096 290.968 43.864C290.488 44.616 289.816 45.2 288.952 45.616C288.088 46.032 287.072 46.24 285.904 46.24ZM298.735 46V31.264H294.151V28.48H306.343V31.264H301.759V46H298.735ZM309.262 46V28.48H314.806C315.974 28.48 316.982 28.696 317.83 29.128C318.694 29.56 319.366 30.168 319.846 30.952C320.326 31.72 320.566 32.632 320.566 33.688C320.566 34.84 320.27 35.856 319.678 36.736C319.102 37.616 318.318 38.24 317.326 38.608L320.806 46H317.446L314.398 39.04H312.262V46H309.262ZM312.262 36.4H314.806C315.654 36.4 316.318 36.168 316.798 35.704C317.278 35.24 317.518 34.6 317.518 33.784C317.518 32.952 317.278 32.304 316.798 31.84C316.318 31.36 315.654 31.12 314.806 31.12H312.262V36.4ZM329.028 46.24C327.908 46.24 326.932 46.032 326.1 45.616C325.284 45.184 324.652 44.584 324.204 43.816C323.772 43.032 323.556 42.112 323.556 41.056V33.424C323.556 32.368 323.772 31.456 324.204 30.688C324.652 29.904 325.284 29.304 326.1 28.888C326.932 28.456 327.908 28.24 329.028 28.24C330.164 28.24 331.14 28.456 331.956 28.888C332.772 29.304 333.396 29.904 333.828 30.688C334.276 31.456 334.5 32.36 334.5 33.4V41.056C334.5 42.112 334.276 43.032 333.828 43.816C333.396 44.584 332.772 45.184 331.956 45.616C331.14 46.032 330.164 46.24 329.028 46.24ZM329.028 43.6C329.844 43.6 330.46 43.384 330.876 42.952C331.292 42.504 331.5 41.872 331.5 41.056V33.424C331.5 32.592 331.292 31.96 330.876 31.528C330.46 31.096 329.844 30.88 329.028 30.88C328.212 30.88 327.596 31.096 327.18 31.528C326.764 31.96 326.556 32.592 326.556 33.424V41.056C326.556 41.872 326.764 42.504 327.18 42.952C327.612 43.384 328.228 43.6 329.028 43.6ZM337.947 46V28.48H341.619L346.491 42.64C346.443 42.128 346.387 41.528 346.323 40.84C346.275 40.136 346.235 39.424 346.203 38.704C346.171 37.968 346.155 37.328 346.155 36.784V28.48H348.891V46H345.219L340.395 31.84C340.427 32.304 340.467 32.864 340.515 33.52C340.563 34.176 340.603 34.848 340.635 35.536C340.667 36.224 340.683 36.856 340.683 37.432V46H337.947ZM357.905 46.24C356.785 46.24 355.801 46.032 354.953 45.616C354.121 45.184 353.473 44.584 353.009 43.816C352.561 43.032 352.337 42.112 352.337 41.056V33.424C352.337 32.352 352.561 31.432 353.009 30.664C353.473 29.896 354.121 29.304 354.953 28.888C355.801 28.456 356.785 28.24 357.905 28.24C359.041 28.24 360.017 28.456 360.833 28.888C361.665 29.304 362.313 29.896 362.777 30.664C363.241 31.432 363.473 32.352 363.473 33.424H360.449C360.449 32.592 360.225 31.96 359.777 31.528C359.345 31.096 358.721 30.88 357.905 30.88C357.089 30.88 356.457 31.096 356.009 31.528C355.561 31.96 355.337 32.584 355.337 33.4V41.056C355.337 41.872 355.561 42.504 356.009 42.952C356.457 43.4 357.089 43.624 357.905 43.624C358.721 43.624 359.345 43.4 359.777 42.952C360.225 42.504 360.449 41.872 360.449 41.056V39.28H357.473V36.688H363.473V41.056C363.473 42.112 363.241 43.032 362.777 43.816C362.313 44.584 361.665 45.184 360.833 45.616C360.017 46.032 359.041 46.24 357.905 46.24Z" fill="#E6E5EA"/>
<rect x="380.5" y="23" width="10" height="28" fill="#A4FFAF"/>
<rect x="398.5" y="23" width="10" height="28" fill="#A4FFAF"/>
<rect x="416.5" y="23" width="10" height="28" fill="#A4FFAF"/>
<rect x="434" y="23" width="10" height="28" fill="#A4FFAF"/>
</g>
<path d="M37.7641 43.18C36.8641 43.18 36.0841 43.03 35.4241 42.73C34.7641 42.43 34.2541 42.004 33.8941 41.452C33.5461 40.888 33.3661 40.228 33.3541 39.472H35.6041C35.6041 40.012 35.7961 40.438 36.1801 40.75C36.5761 41.05 37.1101 41.2 37.7821 41.2C38.4301 41.2 38.9341 41.05 39.2941 40.75C39.6661 40.45 39.8521 40.036 39.8521 39.508C39.8521 39.064 39.7201 38.68 39.4561 38.356C39.2041 38.02 38.8381 37.792 38.3581 37.672L36.8461 37.258C35.8141 36.994 35.0161 36.52 34.4521 35.836C33.9001 35.152 33.6241 34.324 33.6241 33.352C33.6241 32.608 33.7921 31.96 34.1281 31.408C34.4641 30.856 34.9381 30.43 35.5501 30.13C36.1741 29.83 36.9061 29.68 37.7461 29.68C39.0181 29.68 40.0261 30.01 40.7701 30.67C41.5141 31.318 41.8921 32.194 41.9041 33.298H39.6541C39.6541 32.782 39.4861 32.38 39.1501 32.092C38.8141 31.792 38.3401 31.642 37.7281 31.642C37.1401 31.642 36.6841 31.78 36.3601 32.056C36.0361 32.332 35.8741 32.722 35.8741 33.226C35.8741 33.682 35.9941 34.072 36.2341 34.396C36.4861 34.708 36.8461 34.93 37.3141 35.062L38.8801 35.494C39.9241 35.758 40.7221 36.232 41.2741 36.916C41.8261 37.588 42.1021 38.422 42.1021 39.418C42.1021 40.162 41.9221 40.822 41.5621 41.398C41.2021 41.962 40.6981 42.4 40.0501 42.712C39.4021 43.024 38.6401 43.18 37.7641 43.18ZM47.3871 43V31.948H43.9491V29.86H53.0931V31.948H49.6551V43H47.3871ZM55.2821 43V29.86H59.4401C60.3161 29.86 61.0721 30.022 61.7081 30.346C62.3561 30.67 62.8601 31.126 63.2201 31.714C63.5801 32.29 63.7601 32.974 63.7601 33.766C63.7601 34.63 63.5381 35.392 63.0941 36.052C62.6621 36.712 62.0741 37.18 61.3301 37.456L63.9401 43H61.4201L59.1341 37.78H57.5321V43H55.2821ZM57.5321 35.8H59.4401C60.0761 35.8 60.5741 35.626 60.9341 35.278C61.2941 34.93 61.4741 34.45 61.4741 33.838C61.4741 33.214 61.2941 32.728 60.9341 32.38C60.5741 32.02 60.0761 31.84 59.4401 31.84H57.5321V35.8ZM66.291 43V29.86H74.175V31.822H68.505V35.242H73.545V37.186H68.505V41.038H74.175V43H66.291ZM76.796 43V29.86H79.55L83.204 40.48C83.168 40.096 83.126 39.646 83.078 39.13C83.042 38.602 83.012 38.068 82.988 37.528C82.964 36.976 82.952 36.496 82.952 36.088V29.86H85.004V43H82.25L78.632 32.38C78.656 32.728 78.686 33.148 78.722 33.64C78.758 34.132 78.788 34.636 78.812 35.152C78.836 35.668 78.848 36.142 78.848 36.574V43H76.796ZM91.765 43.18C90.925 43.18 90.187 43.024 89.551 42.712C88.927 42.388 88.441 41.938 88.093 41.362C87.757 40.774 87.589 40.084 87.589 39.292V33.568C87.589 32.764 87.757 32.074 88.093 31.498C88.441 30.922 88.927 30.478 89.551 30.166C90.187 29.842 90.925 29.68 91.765 29.68C92.617 29.68 93.349 29.842 93.961 30.166C94.585 30.478 95.071 30.922 95.419 31.498C95.767 32.074 95.941 32.764 95.941 33.568H93.673C93.673 32.944 93.505 32.47 93.169 32.146C92.845 31.822 92.377 31.66 91.765 31.66C91.153 31.66 90.679 31.822 90.343 32.146C90.007 32.47 89.839 32.938 89.839 33.55V39.292C89.839 39.904 90.007 40.378 90.343 40.714C90.679 41.05 91.153 41.218 91.765 41.218C92.377 41.218 92.845 41.05 93.169 40.714C93.505 40.378 93.673 39.904 93.673 39.292V37.96H91.441V36.016H95.941V39.292C95.941 40.084 95.767 40.774 95.419 41.362C95.071 41.938 94.585 42.388 93.961 42.712C93.349 43.024 92.617 43.18 91.765 43.18ZM101.352 43V31.948H97.9139V29.86H107.058V31.948H103.62V43H101.352ZM109.265 43V29.86H111.515V35.134H115.043V29.86H117.293V43H115.043V37.222H111.515V43H109.265Z" fill="#817D92"/>
</g>
<defs>
<clipPath id="clip0_0_558">
<rect width="476" height="72" fill="white"/>
</clipPath>
<clipPath id="clip1_0_558">
<rect width="166" height="31" fill="white" transform="translate(278 21)"/>
</clipPath>
</defs>
</svg>
