<svg width="476" height="72" viewBox="0 0 476 72" fill="none" xmlns="http://www.w3.org/2000/svg">
<g clip-path="url(#clip0_0_531)">
<rect width="476" height="72" fill="#18171F"/>
<g clip-path="url(#clip1_0_531)">
<path d="M241.172 46V31.264H236.588V28.48H248.78V31.264H244.196V46H241.172ZM257.075 46.24C255.955 46.24 254.979 46.032 254.147 45.616C253.331 45.184 252.699 44.584 252.251 43.816C251.819 43.032 251.603 42.112 251.603 41.056V33.424C251.603 32.368 251.819 31.456 252.251 30.688C252.699 29.904 253.331 29.304 254.147 28.888C254.979 28.456 255.955 28.24 257.075 28.24C258.211 28.24 259.187 28.456 260.003 28.888C260.819 29.304 261.443 29.904 261.875 30.688C262.323 31.456 262.547 32.36 262.547 33.4V41.056C262.547 42.112 262.323 43.032 261.875 43.816C261.443 44.584 260.819 45.184 260.003 45.616C259.187 46.032 258.211 46.24 257.075 46.24ZM257.075 43.6C257.891 43.6 258.507 43.384 258.923 42.952C259.339 42.504 259.547 41.872 259.547 41.056V33.424C259.547 32.592 259.339 31.96 258.923 31.528C258.507 31.096 257.891 30.88 257.075 30.88C256.259 30.88 255.643 31.096 255.227 31.528C254.811 31.96 254.603 32.592 254.603 33.424V41.056C254.603 41.872 254.811 42.504 255.227 42.952C255.659 43.384 256.275 43.6 257.075 43.6ZM271.466 46.24C270.346 46.24 269.37 46.032 268.538 45.616C267.722 45.184 267.09 44.584 266.642 43.816C266.21 43.032 265.994 42.112 265.994 41.056V33.424C265.994 32.368 266.21 31.456 266.642 30.688C267.09 29.904 267.722 29.304 268.538 28.888C269.37 28.456 270.346 28.24 271.466 28.24C272.602 28.24 273.578 28.456 274.394 28.888C275.21 29.304 275.834 29.904 276.266 30.688C276.714 31.456 276.938 32.36 276.938 33.4V41.056C276.938 42.112 276.714 43.032 276.266 43.816C275.834 44.584 275.21 45.184 274.394 45.616C273.578 46.032 272.602 46.24 271.466 46.24ZM271.466 43.6C272.282 43.6 272.898 43.384 273.314 42.952C273.73 42.504 273.938 41.872 273.938 41.056V33.424C273.938 32.592 273.73 31.96 273.314 31.528C272.898 31.096 272.282 30.88 271.466 30.88C270.65 30.88 270.034 31.096 269.618 31.528C269.202 31.96 268.994 32.592 268.994 33.424V41.056C268.994 41.872 269.202 42.504 269.618 42.952C270.05 43.384 270.666 43.6 271.466 43.6ZM295.231 46L293.431 28.48H296.023L297.079 40.72C297.111 40.992 297.135 41.328 297.151 41.728C297.183 42.112 297.207 42.504 297.223 42.904C297.255 43.304 297.271 43.656 297.271 43.96C297.303 43.656 297.335 43.304 297.367 42.904C297.399 42.504 297.431 42.112 297.463 41.728C297.511 41.328 297.551 40.992 297.583 40.72L299.023 28.48H301.543L302.887 40.72C302.935 40.992 302.975 41.328 303.007 41.728C303.055 42.112 303.103 42.504 303.151 42.904C303.199 43.304 303.239 43.656 303.271 43.96C303.287 43.656 303.303 43.304 303.319 42.904C303.335 42.504 303.351 42.112 303.367 41.728C303.399 41.328 303.431 40.992 303.463 40.72L304.495 28.48H307.063L305.167 46H301.855L300.559 33.712C300.527 33.408 300.487 33.056 300.439 32.656C300.407 32.24 300.375 31.832 300.343 31.432C300.311 31.016 300.287 30.664 300.271 30.376C300.255 30.664 300.223 31.016 300.175 31.432C300.143 31.832 300.111 32.24 300.079 32.656C300.047 33.056 300.015 33.408 299.983 33.712L298.567 46H295.231ZM309.55 46V28.48H320.062V31.096H312.502V35.656H319.222V38.248H312.502V43.384H320.062V46H309.55ZM322.668 46L327.084 28.48H330.948L335.388 46H332.316L331.356 41.752H326.7L325.74 46H322.668ZM327.252 39.304H330.804L329.748 34.6C329.572 33.816 329.42 33.112 329.292 32.488C329.164 31.848 329.076 31.384 329.028 31.096C328.98 31.384 328.892 31.848 328.764 32.488C328.652 33.112 328.5 33.808 328.308 34.576L327.252 39.304ZM338.043 46V28.48H341.043V35.56H343.131L346.419 28.48H349.683L345.771 36.88L349.875 46H346.539L343.083 38.296H341.043V46H338.043ZM356.705 40.408L356.177 31.792V28.48H359.441V31.792L358.913 40.408H356.705ZM357.449 46.12C356.953 46.12 356.553 45.976 356.249 45.688C355.945 45.384 355.793 45 355.793 44.536C355.793 44.072 355.945 43.696 356.249 43.408C356.553 43.104 356.953 42.952 357.449 42.952H358.169C358.681 42.952 359.081 43.096 359.369 43.384C359.673 43.672 359.825 44.056 359.825 44.536C359.825 45 359.673 45.384 359.369 45.688C359.065 45.976 358.657 46.12 358.145 46.12H357.449Z" fill="#E6E5EA"/>
<rect x="380.5" y="23" width="10" height="28" fill="#F64A4A"/>
<rect x="399" y="24" width="8" height="26" stroke="#E6E5EA" stroke-width="2"/>
<rect x="417" y="24" width="8" height="26" stroke="#E6E5EA" stroke-width="2"/>
<rect x="435.5" y="24" width="8" height="26" stroke="#E6E5EA" stroke-width="2"/>
</g>
<path d="M37.7641 43.18C36.8641 43.18 36.0841 43.03 35.4241 42.73C34.7641 42.43 34.2541 42.004 33.8941 41.452C33.5461 40.888 33.3661 40.228 33.3541 39.472H35.6041C35.6041 40.012 35.7961 40.438 36.1801 40.75C36.5761 41.05 37.1101 41.2 37.7821 41.2C38.4301 41.2 38.9341 41.05 39.2941 40.75C39.6661 40.45 39.8521 40.036 39.8521 39.508C39.8521 39.064 39.7201 38.68 39.4561 38.356C39.2041 38.02 38.8381 37.792 38.3581 37.672L36.8461 37.258C35.8141 36.994 35.0161 36.52 34.4521 35.836C33.9001 35.152 33.6241 34.324 33.6241 33.352C33.6241 32.608 33.7921 31.96 34.1281 31.408C34.4641 30.856 34.9381 30.43 35.5501 30.13C36.1741 29.83 36.9061 29.68 37.7461 29.68C39.0181 29.68 40.0261 30.01 40.7701 30.67C41.5141 31.318 41.8921 32.194 41.9041 33.298H39.6541C39.6541 32.782 39.4861 32.38 39.1501 32.092C38.8141 31.792 38.3401 31.642 37.7281 31.642C37.1401 31.642 36.6841 31.78 36.3601 32.056C36.0361 32.332 35.8741 32.722 35.8741 33.226C35.8741 33.682 35.9941 34.072 36.2341 34.396C36.4861 34.708 36.8461 34.93 37.3141 35.062L38.8801 35.494C39.9241 35.758 40.7221 36.232 41.2741 36.916C41.8261 37.588 42.1021 38.422 42.1021 39.418C42.1021 40.162 41.9221 40.822 41.5621 41.398C41.2021 41.962 40.6981 42.4 40.0501 42.712C39.4021 43.024 38.6401 43.18 37.7641 43.18ZM47.3871 43V31.948H43.9491V29.86H53.0931V31.948H49.6551V43H47.3871ZM55.2821 43V29.86H59.4401C60.3161 29.86 61.0721 30.022 61.7081 30.346C62.3561 30.67 62.8601 31.126 63.2201 31.714C63.5801 32.29 63.7601 32.974 63.7601 33.766C63.7601 34.63 63.5381 35.392 63.0941 36.052C62.6621 36.712 62.0741 37.18 61.3301 37.456L63.9401 43H61.4201L59.1341 37.78H57.5321V43H55.2821ZM57.5321 35.8H59.4401C60.0761 35.8 60.5741 35.626 60.9341 35.278C61.2941 34.93 61.4741 34.45 61.4741 33.838C61.4741 33.214 61.2941 32.728 60.9341 32.38C60.5741 32.02 60.0761 31.84 59.4401 31.84H57.5321V35.8ZM66.291 43V29.86H74.175V31.822H68.505V35.242H73.545V37.186H68.505V41.038H74.175V43H66.291ZM76.796 43V29.86H79.55L83.204 40.48C83.168 40.096 83.126 39.646 83.078 39.13C83.042 38.602 83.012 38.068 82.988 37.528C82.964 36.976 82.952 36.496 82.952 36.088V29.86H85.004V43H82.25L78.632 32.38C78.656 32.728 78.686 33.148 78.722 33.64C78.758 34.132 78.788 34.636 78.812 35.152C78.836 35.668 78.848 36.142 78.848 36.574V43H76.796ZM91.765 43.18C90.925 43.18 90.187 43.024 89.551 42.712C88.927 42.388 88.441 41.938 88.093 41.362C87.757 40.774 87.589 40.084 87.589 39.292V33.568C87.589 32.764 87.757 32.074 88.093 31.498C88.441 30.922 88.927 30.478 89.551 30.166C90.187 29.842 90.925 29.68 91.765 29.68C92.617 29.68 93.349 29.842 93.961 30.166C94.585 30.478 95.071 30.922 95.419 31.498C95.767 32.074 95.941 32.764 95.941 33.568H93.673C93.673 32.944 93.505 32.47 93.169 32.146C92.845 31.822 92.377 31.66 91.765 31.66C91.153 31.66 90.679 31.822 90.343 32.146C90.007 32.47 89.839 32.938 89.839 33.55V39.292C89.839 39.904 90.007 40.378 90.343 40.714C90.679 41.05 91.153 41.218 91.765 41.218C92.377 41.218 92.845 41.05 93.169 40.714C93.505 40.378 93.673 39.904 93.673 39.292V37.96H91.441V36.016H95.941V39.292C95.941 40.084 95.767 40.774 95.419 41.362C95.071 41.938 94.585 42.388 93.961 42.712C93.349 43.024 92.617 43.18 91.765 43.18ZM101.352 43V31.948H97.9139V29.86H107.058V31.948H103.62V43H101.352ZM109.265 43V29.86H111.515V35.134H115.043V29.86H117.293V43H115.043V37.222H111.515V43H109.265Z" fill="#817D92"/>
</g>
<defs>
<clipPath id="clip0_0_531">
<rect width="476" height="72" fill="white"/>
</clipPath>
<clipPath id="clip1_0_531">
<rect width="209.5" height="31" fill="white" transform="translate(235 21)"/>
</clipPath>
</defs>
</svg>
