<svg width="476" height="72" viewBox="0 0 476 72" fill="none" xmlns="http://www.w3.org/2000/svg">
<g clip-path="url(#clip0_0_540)">
<rect width="476" height="72" fill="#18171F"/>
<g clip-path="url(#clip1_0_540)">
<path d="M309.622 46L307.822 28.48H310.414L311.47 40.72C311.502 40.992 311.526 41.328 311.542 41.728C311.574 42.112 311.598 42.504 311.614 42.904C311.646 43.304 311.662 43.656 311.662 43.96C311.694 43.656 311.726 43.304 311.758 42.904C311.79 42.504 311.822 42.112 311.854 41.728C311.902 41.328 311.942 40.992 311.974 40.72L313.414 28.48H315.934L317.278 40.72C317.326 40.992 317.366 41.328 317.398 41.728C317.446 42.112 317.494 42.504 317.542 42.904C317.59 43.304 317.63 43.656 317.662 43.96C317.678 43.656 317.694 43.304 317.71 42.904C317.726 42.504 317.742 42.112 317.758 41.728C317.79 41.328 317.822 40.992 317.854 40.72L318.886 28.48H321.454L319.557 46H316.246L314.95 33.712C314.918 33.408 314.878 33.056 314.83 32.656C314.798 32.24 314.766 31.832 314.734 31.432C314.702 31.016 314.678 30.664 314.662 30.376C314.646 30.664 314.614 31.016 314.566 31.432C314.534 31.832 314.502 32.24 314.47 32.656C314.438 33.056 314.406 33.408 314.374 33.712L312.958 46H309.622ZM323.94 46V28.48H334.452V31.096H326.892V35.656H333.612V38.248H326.892V43.384H334.452V46H323.94ZM337.059 46L341.475 28.48H345.339L349.779 46H346.707L345.747 41.752H341.091L340.131 46H337.059ZM341.643 39.304H345.195L344.139 34.6C343.963 33.816 343.811 33.112 343.683 32.488C343.555 31.848 343.467 31.384 343.419 31.096C343.371 31.384 343.283 31.848 343.155 32.488C343.043 33.112 342.891 33.808 342.699 34.576L341.643 39.304ZM352.433 46V28.48H355.433V35.56H357.521L360.809 28.48H364.073L360.161 36.88L364.265 46H360.929L357.473 38.296H355.433V46H352.433Z" fill="#E6E5EA"/>
<rect x="380.5" y="23" width="10" height="28" fill="#FB7C58"/>
<rect x="398.5" y="23" width="10" height="28" fill="#FB7C58"/>
<rect x="417" y="24" width="8" height="26" stroke="#E6E5EA" stroke-width="2"/>
<rect x="435.5" y="24" width="8" height="26" stroke="#E6E5EA" stroke-width="2"/>
</g>
<path d="M37.7641 43.18C36.8641 43.18 36.0841 43.03 35.4241 42.73C34.7641 42.43 34.2541 42.004 33.8941 41.452C33.5461 40.888 33.3661 40.228 33.3541 39.472H35.6041C35.6041 40.012 35.7961 40.438 36.1801 40.75C36.5761 41.05 37.1101 41.2 37.7821 41.2C38.4301 41.2 38.9341 41.05 39.2941 40.75C39.6661 40.45 39.8521 40.036 39.8521 39.508C39.8521 39.064 39.7201 38.68 39.4561 38.356C39.2041 38.02 38.8381 37.792 38.3581 37.672L36.8461 37.258C35.8141 36.994 35.0161 36.52 34.4521 35.836C33.9001 35.152 33.6241 34.324 33.6241 33.352C33.6241 32.608 33.7921 31.96 34.1281 31.408C34.4641 30.856 34.9381 30.43 35.5501 30.13C36.1741 29.83 36.9061 29.68 37.7461 29.68C39.0181 29.68 40.0261 30.01 40.7701 30.67C41.5141 31.318 41.8921 32.194 41.9041 33.298H39.6541C39.6541 32.782 39.4861 32.38 39.1501 32.092C38.8141 31.792 38.3401 31.642 37.7281 31.642C37.1401 31.642 36.6841 31.78 36.3601 32.056C36.0361 32.332 35.8741 32.722 35.8741 33.226C35.8741 33.682 35.9941 34.072 36.2341 34.396C36.4861 34.708 36.8461 34.93 37.3141 35.062L38.8801 35.494C39.9241 35.758 40.7221 36.232 41.2741 36.916C41.8261 37.588 42.1021 38.422 42.1021 39.418C42.1021 40.162 41.9221 40.822 41.5621 41.398C41.2021 41.962 40.6981 42.4 40.0501 42.712C39.4021 43.024 38.6401 43.18 37.7641 43.18ZM47.3871 43V31.948H43.9491V29.86H53.0931V31.948H49.6551V43H47.3871ZM55.2821 43V29.86H59.4401C60.3161 29.86 61.0721 30.022 61.7081 30.346C62.3561 30.67 62.8601 31.126 63.2201 31.714C63.5801 32.29 63.7601 32.974 63.7601 33.766C63.7601 34.63 63.5381 35.392 63.0941 36.052C62.6621 36.712 62.0741 37.18 61.3301 37.456L63.9401 43H61.4201L59.1341 37.78H57.5321V43H55.2821ZM57.5321 35.8H59.4401C60.0761 35.8 60.5741 35.626 60.9341 35.278C61.2941 34.93 61.4741 34.45 61.4741 33.838C61.4741 33.214 61.2941 32.728 60.9341 32.38C60.5741 32.02 60.0761 31.84 59.4401 31.84H57.5321V35.8ZM66.291 43V29.86H74.175V31.822H68.505V35.242H73.545V37.186H68.505V41.038H74.175V43H66.291ZM76.796 43V29.86H79.55L83.204 40.48C83.168 40.096 83.126 39.646 83.078 39.13C83.042 38.602 83.012 38.068 82.988 37.528C82.964 36.976 82.952 36.496 82.952 36.088V29.86H85.004V43H82.25L78.632 32.38C78.656 32.728 78.686 33.148 78.722 33.64C78.758 34.132 78.788 34.636 78.812 35.152C78.836 35.668 78.848 36.142 78.848 36.574V43H76.796ZM91.765 43.18C90.925 43.18 90.187 43.024 89.551 42.712C88.927 42.388 88.441 41.938 88.093 41.362C87.757 40.774 87.589 40.084 87.589 39.292V33.568C87.589 32.764 87.757 32.074 88.093 31.498C88.441 30.922 88.927 30.478 89.551 30.166C90.187 29.842 90.925 29.68 91.765 29.68C92.617 29.68 93.349 29.842 93.961 30.166C94.585 30.478 95.071 30.922 95.419 31.498C95.767 32.074 95.941 32.764 95.941 33.568H93.673C93.673 32.944 93.505 32.47 93.169 32.146C92.845 31.822 92.377 31.66 91.765 31.66C91.153 31.66 90.679 31.822 90.343 32.146C90.007 32.47 89.839 32.938 89.839 33.55V39.292C89.839 39.904 90.007 40.378 90.343 40.714C90.679 41.05 91.153 41.218 91.765 41.218C92.377 41.218 92.845 41.05 93.169 40.714C93.505 40.378 93.673 39.904 93.673 39.292V37.96H91.441V36.016H95.941V39.292C95.941 40.084 95.767 40.774 95.419 41.362C95.071 41.938 94.585 42.388 93.961 42.712C93.349 43.024 92.617 43.18 91.765 43.18ZM101.352 43V31.948H97.9139V29.86H107.058V31.948H103.62V43H101.352ZM109.265 43V29.86H111.515V35.134H115.043V29.86H117.293V43H115.043V37.222H111.515V43H109.265Z" fill="#817D92"/>
</g>
<defs>
<clipPath id="clip0_0_540">
<rect width="476" height="72" fill="white"/>
</clipPath>
<clipPath id="clip1_0_540">
<rect width="137.5" height="31" fill="white" transform="translate(307 21)"/>
</clipPath>
</defs>
</svg>
